<?xml version="1.0" encoding="utf-8"?>
<!-- Generator: Adobe Illustrator 15.0.0, SVG Export Plug-In . SVG Version: 6.00 Build 0)  -->
<!DOCTYPE svg PUBLIC "-//W3C//DTD SVG 1.1//EN" "http://www.w3.org/Graphics/SVG/1.1/DTD/svg11.dtd">
<svg version="1.1" id="Layer_1" xmlns="http://www.w3.org/2000/svg" xmlns:xlink="http://www.w3.org/1999/xlink" x="0px" y="0px"
	 width="120px" height="120px" viewBox="0 0 120 120" style="enable-background:new 0 0 120 120;" xml:space="preserve">
<g>
	<g>
		<path style="fill:#816F88;" d="M32.78,114.519h4.03v1.06h-5.291v-9.314h1.261V114.519z"/>
		<path style="fill:#816F88;" d="M39.696,115.578h-1.261v-9.314h1.261V115.578z"/>
		<path style="fill:#816F88;" d="M46.346,114.662c0.251,0,0.482-0.013,0.692-0.036c0.21-0.023,0.409-0.06,0.595-0.107
			c0.187-0.048,0.362-0.104,0.527-0.172c0.165-0.067,0.329-0.145,0.494-0.231v-2.054H47.21c-0.083,0-0.148-0.023-0.198-0.071
			s-0.075-0.106-0.075-0.176V111.1h2.86v3.575c-0.234,0.169-0.478,0.316-0.731,0.441c-0.253,0.126-0.524,0.231-0.812,0.315
			c-0.289,0.085-0.597,0.147-0.926,0.188c-0.33,0.041-0.687,0.062-1.073,0.062c-0.676,0-1.295-0.115-1.859-0.348
			c-0.563-0.231-1.049-0.557-1.456-0.975s-0.725-0.92-0.952-1.505s-0.341-1.229-0.341-1.931c0-0.71,0.111-1.358,0.335-1.943
			c0.223-0.585,0.542-1.086,0.956-1.505c0.414-0.418,0.914-0.742,1.501-0.972c0.587-0.229,1.245-0.345,1.973-0.345
			c0.368,0,0.71,0.027,1.027,0.082c0.316,0.054,0.61,0.132,0.881,0.233c0.271,0.103,0.521,0.226,0.75,0.371
			c0.23,0.145,0.444,0.309,0.644,0.49l-0.357,0.572c-0.074,0.117-0.169,0.176-0.286,0.176c-0.069,0-0.145-0.024-0.228-0.072
			c-0.108-0.061-0.229-0.134-0.364-0.221s-0.298-0.17-0.491-0.25s-0.42-0.148-0.683-0.205c-0.262-0.056-0.573-0.084-0.933-0.084
			c-0.524,0-0.999,0.085-1.423,0.257c-0.425,0.171-0.787,0.416-1.086,0.734c-0.299,0.318-0.528,0.704-0.689,1.156
			c-0.16,0.453-0.24,0.962-0.24,1.524c0,0.59,0.083,1.115,0.25,1.576c0.167,0.462,0.402,0.853,0.706,1.174
			c0.303,0.32,0.663,0.565,1.079,0.734C45.383,114.577,45.843,114.662,46.346,114.662z"/>
		<path style="fill:#816F88;" d="M59.287,115.578H58.02v-4.238h-5.018v4.238h-1.268v-9.314h1.268v4.153h5.018v-4.153h1.268V115.578z
			"/>
		<path style="fill:#816F88;" d="M67.906,106.264v1.06h-3.01v8.255h-1.261v-8.255h-3.022v-1.06H67.906z"/>
		<path style="fill:#816F88;" d="M70.727,115.578h-1.261v-9.314h1.261V115.578z"/>
		<path style="fill:#816F88;" d="M74.123,106.306c0.054,0.028,0.116,0.086,0.185,0.173l5.395,7.02
			c-0.013-0.112-0.021-0.222-0.026-0.328s-0.006-0.209-0.006-0.309v-6.598h1.105v9.314h-0.637c-0.1,0-0.183-0.018-0.25-0.052
			c-0.067-0.035-0.133-0.094-0.198-0.176l-5.389-7.014c0.009,0.108,0.015,0.215,0.02,0.318c0.004,0.104,0.006,0.2,0.006,0.286v6.637
			h-1.105v-9.314h0.65C73.985,106.264,74.069,106.277,74.123,106.306z"/>
		<path style="fill:#816F88;" d="M87.205,114.662c0.251,0,0.482-0.013,0.692-0.036c0.21-0.023,0.409-0.06,0.595-0.107
			c0.187-0.048,0.362-0.104,0.527-0.172c0.165-0.067,0.329-0.145,0.494-0.231v-2.054h-1.443c-0.083,0-0.148-0.023-0.198-0.071
			s-0.075-0.106-0.075-0.176V111.1h2.86v3.575c-0.234,0.169-0.478,0.316-0.731,0.441c-0.253,0.126-0.524,0.231-0.812,0.315
			c-0.289,0.085-0.597,0.147-0.926,0.188c-0.33,0.041-0.687,0.062-1.073,0.062c-0.676,0-1.295-0.115-1.859-0.348
			c-0.563-0.231-1.049-0.557-1.456-0.975s-0.725-0.92-0.952-1.505s-0.341-1.229-0.341-1.931c0-0.71,0.111-1.358,0.335-1.943
			c0.223-0.585,0.542-1.086,0.956-1.505c0.414-0.418,0.914-0.742,1.501-0.972c0.587-0.229,1.245-0.345,1.973-0.345
			c0.368,0,0.71,0.027,1.027,0.082c0.316,0.054,0.61,0.132,0.881,0.233c0.271,0.103,0.521,0.226,0.75,0.371
			c0.23,0.145,0.444,0.309,0.644,0.49l-0.357,0.572c-0.074,0.117-0.169,0.176-0.286,0.176c-0.069,0-0.145-0.024-0.228-0.072
			c-0.108-0.061-0.229-0.134-0.364-0.221s-0.298-0.17-0.491-0.25s-0.42-0.148-0.683-0.205c-0.262-0.056-0.573-0.084-0.933-0.084
			c-0.524,0-0.999,0.085-1.423,0.257c-0.425,0.171-0.787,0.416-1.086,0.734c-0.299,0.318-0.528,0.704-0.689,1.156
			c-0.16,0.453-0.24,0.962-0.24,1.524c0,0.59,0.083,1.115,0.25,1.576c0.167,0.462,0.402,0.853,0.706,1.174
			c0.303,0.32,0.663,0.565,1.079,0.734C86.242,114.577,86.702,114.662,87.205,114.662z"/>
	</g>
	<g>
		<path style="fill:none;stroke:#816F88;stroke-width:2;stroke-linecap:round;stroke-linejoin:round;stroke-miterlimit:10;" d="
			M45.093,15.276c1.188-2.835,7.869-2.566,10.389-2.622c3.844-0.089,7.691-0.02,11.529,0.204c1.545,0.092,6.67,0.086,7.207,2.043
			l16.31,33.695c0,0,3.44,1.877-31.911,1.877c0,0-30.973,0.625-29.199-2.189c3.604-7.216,7.166-14.452,10.635-21.732
			c1.762-3.696,3.439-7.4,5.003-11.185C45.068,15.337,45.08,15.308,45.093,15.276z"/>
		<path style="fill:none;stroke:#816F88;stroke-width:2;stroke-linecap:round;stroke-linejoin:round;stroke-miterlimit:10;" d="
			M87.371,42.359c0,0,5.303,1.743-28.762,1.743c0,0-27.855,0.58-26.148-2.033"/>
		<path style="fill:none;stroke:#816F88;stroke-width:2;stroke-linecap:round;stroke-linejoin:round;stroke-miterlimit:10;" d="
			M54.525,60.12c0,0-9.521,2.438-8.587,12.59c0,0-0.016,6.387,7.887,14.108c0,0,6.322,2.709,13.006-0.227
			c0,0,7.771-8.478,7.604-14.72c0,0,1.282-8.528-8.694-11.594"/>
		<path style="fill:none;stroke:#816F88;stroke-width:2;stroke-linecap:round;stroke-linejoin:round;stroke-miterlimit:10;" d="
			M58.473,51.532v1.215l-5.651,3.496l1.703,3.822c0,0,4.295,1.161,11.27,0.128l1.951-3.883l-6.232-3.56v-1.219"/>
		<path style="fill:none;stroke:#816F88;stroke-width:2;stroke-linecap:round;stroke-linejoin:round;stroke-miterlimit:10;" d="
			M52.996,85.984c0,0-1.343,2.7,0.555,4.108c0,0,6.918,3.429,13.406,0c0,0,1.271-2.438,0.408-4.108"/>
	</g>
</g>
</svg>
